<mxfile host="app.diagrams.net" modified="2023-10-12T10:40:12.228Z" agent="Mozilla/5.0 (Windows NT 10.0; Win64; x64) AppleWebKit/537.36 (KHTML, like Gecko) Chrome/117.0.0.0 Safari/537.36" etag="EU0JvM8VzvijSv4_cUjX" version="22.0.4" type="device">
  <diagram name="Page-1" id="zLEdhZ6ArCs2a_PBON4g">
    <mxGraphModel dx="1806" dy="401" grid="1" gridSize="10" guides="1" tooltips="1" connect="1" arrows="1" fold="1" page="1" pageScale="1" pageWidth="850" pageHeight="1100" math="0" shadow="0">
      <root>
        <mxCell id="0" />
        <mxCell id="1" parent="0" />
        <mxCell id="46l-f_MFqbUuRLEDhZOO-1" value="Kunden" style="whiteSpace=wrap;html=1;align=center;" vertex="1" parent="1">
          <mxGeometry x="20" y="450" width="100" height="40" as="geometry" />
        </mxCell>
        <mxCell id="46l-f_MFqbUuRLEDhZOO-2" value="Ansprechpartner" style="whiteSpace=wrap;html=1;align=center;" vertex="1" parent="1">
          <mxGeometry x="20" y="290" width="100" height="40" as="geometry" />
        </mxCell>
        <mxCell id="46l-f_MFqbUuRLEDhZOO-4" value="Tarif" style="whiteSpace=wrap;html=1;align=center;" vertex="1" parent="1">
          <mxGeometry x="180" y="370" width="100" height="40" as="geometry" />
        </mxCell>
        <mxCell id="46l-f_MFqbUuRLEDhZOO-5" value="hat" style="shape=rhombus;perimeter=rhombusPerimeter;whiteSpace=wrap;html=1;align=center;" vertex="1" parent="1">
          <mxGeometry x="170" y="440" width="120" height="60" as="geometry" />
        </mxCell>
        <mxCell id="46l-f_MFqbUuRLEDhZOO-6" value="hat" style="shape=rhombus;perimeter=rhombusPerimeter;whiteSpace=wrap;html=1;align=center;" vertex="1" parent="1">
          <mxGeometry x="10" y="360" width="120" height="60" as="geometry" />
        </mxCell>
        <mxCell id="46l-f_MFqbUuRLEDhZOO-14" value="" style="endArrow=none;html=1;rounded=0;" edge="1" parent="1" source="46l-f_MFqbUuRLEDhZOO-6" target="46l-f_MFqbUuRLEDhZOO-2">
          <mxGeometry relative="1" as="geometry">
            <mxPoint x="-150" y="480" as="sourcePoint" />
            <mxPoint x="-120" y="480" as="targetPoint" />
          </mxGeometry>
        </mxCell>
        <mxCell id="46l-f_MFqbUuRLEDhZOO-15" value="1" style="edgeLabel;html=1;align=center;verticalAlign=middle;resizable=0;points=[];" vertex="1" connectable="0" parent="46l-f_MFqbUuRLEDhZOO-14">
          <mxGeometry x="-0.3515" y="1" relative="1" as="geometry">
            <mxPoint as="offset" />
          </mxGeometry>
        </mxCell>
        <mxCell id="46l-f_MFqbUuRLEDhZOO-16" value="" style="endArrow=none;html=1;rounded=0;" edge="1" parent="1" source="46l-f_MFqbUuRLEDhZOO-6" target="46l-f_MFqbUuRLEDhZOO-1">
          <mxGeometry relative="1" as="geometry">
            <mxPoint x="70" y="370" as="sourcePoint" />
            <mxPoint x="60" y="450" as="targetPoint" />
          </mxGeometry>
        </mxCell>
        <mxCell id="46l-f_MFqbUuRLEDhZOO-17" value="N" style="edgeLabel;html=1;align=center;verticalAlign=middle;resizable=0;points=[];" vertex="1" connectable="0" parent="46l-f_MFqbUuRLEDhZOO-16">
          <mxGeometry x="-0.3515" y="1" relative="1" as="geometry">
            <mxPoint as="offset" />
          </mxGeometry>
        </mxCell>
        <mxCell id="46l-f_MFqbUuRLEDhZOO-20" value="" style="endArrow=none;html=1;rounded=0;" edge="1" parent="1" source="46l-f_MFqbUuRLEDhZOO-5" target="46l-f_MFqbUuRLEDhZOO-1">
          <mxGeometry relative="1" as="geometry">
            <mxPoint x="360" y="430" as="sourcePoint" />
            <mxPoint x="350" y="490" as="targetPoint" />
          </mxGeometry>
        </mxCell>
        <mxCell id="46l-f_MFqbUuRLEDhZOO-21" value="N" style="edgeLabel;html=1;align=center;verticalAlign=middle;resizable=0;points=[];" vertex="1" connectable="0" parent="46l-f_MFqbUuRLEDhZOO-20">
          <mxGeometry x="-0.3515" y="1" relative="1" as="geometry">
            <mxPoint x="-24" y="-1" as="offset" />
          </mxGeometry>
        </mxCell>
        <mxCell id="46l-f_MFqbUuRLEDhZOO-22" value="" style="endArrow=none;html=1;rounded=0;" edge="1" parent="1" source="46l-f_MFqbUuRLEDhZOO-5" target="46l-f_MFqbUuRLEDhZOO-4">
          <mxGeometry relative="1" as="geometry">
            <mxPoint x="320" y="540" as="sourcePoint" />
            <mxPoint x="330" y="500" as="targetPoint" />
          </mxGeometry>
        </mxCell>
        <mxCell id="46l-f_MFqbUuRLEDhZOO-23" value="M" style="edgeLabel;html=1;align=center;verticalAlign=middle;resizable=0;points=[];" vertex="1" connectable="0" parent="46l-f_MFqbUuRLEDhZOO-22">
          <mxGeometry x="-0.3515" y="1" relative="1" as="geometry">
            <mxPoint x="1" y="-11" as="offset" />
          </mxGeometry>
        </mxCell>
        <mxCell id="46l-f_MFqbUuRLEDhZOO-24" value="Startdatum" style="ellipse;whiteSpace=wrap;html=1;align=center;" vertex="1" parent="1">
          <mxGeometry x="310" y="410" width="100" height="40" as="geometry" />
        </mxCell>
        <mxCell id="46l-f_MFqbUuRLEDhZOO-27" value="Enddatum" style="ellipse;whiteSpace=wrap;html=1;align=center;" vertex="1" parent="1">
          <mxGeometry x="310" y="480" width="100" height="40" as="geometry" />
        </mxCell>
        <mxCell id="46l-f_MFqbUuRLEDhZOO-35" value="" style="endArrow=none;html=1;rounded=0;" edge="1" parent="1" source="46l-f_MFqbUuRLEDhZOO-5" target="46l-f_MFqbUuRLEDhZOO-24">
          <mxGeometry relative="1" as="geometry">
            <mxPoint x="320" y="660" as="sourcePoint" />
            <mxPoint x="480" y="660" as="targetPoint" />
          </mxGeometry>
        </mxCell>
        <mxCell id="46l-f_MFqbUuRLEDhZOO-36" value="" style="endArrow=none;html=1;rounded=0;" edge="1" parent="1" source="46l-f_MFqbUuRLEDhZOO-5" target="46l-f_MFqbUuRLEDhZOO-27">
          <mxGeometry relative="1" as="geometry">
            <mxPoint x="380" y="638" as="sourcePoint" />
            <mxPoint x="417" y="630" as="targetPoint" />
          </mxGeometry>
        </mxCell>
        <mxCell id="46l-f_MFqbUuRLEDhZOO-37" value="Art" style="ellipse;whiteSpace=wrap;html=1;align=center;" vertex="1" parent="1">
          <mxGeometry x="180" y="300" width="100" height="40" as="geometry" />
        </mxCell>
        <mxCell id="46l-f_MFqbUuRLEDhZOO-38" value="" style="endArrow=none;html=1;rounded=0;" edge="1" parent="1" source="46l-f_MFqbUuRLEDhZOO-4" target="46l-f_MFqbUuRLEDhZOO-37">
          <mxGeometry relative="1" as="geometry">
            <mxPoint x="430" y="252" as="sourcePoint" />
            <mxPoint x="467" y="260" as="targetPoint" />
          </mxGeometry>
        </mxCell>
        <mxCell id="46l-f_MFqbUuRLEDhZOO-39" value="Name" style="ellipse;whiteSpace=wrap;html=1;align=center;" vertex="1" parent="1">
          <mxGeometry x="70" y="510" width="100" height="40" as="geometry" />
        </mxCell>
        <mxCell id="46l-f_MFqbUuRLEDhZOO-40" value="Vorname" style="ellipse;whiteSpace=wrap;html=1;align=center;" vertex="1" parent="1">
          <mxGeometry x="-30" y="510" width="100" height="40" as="geometry" />
        </mxCell>
        <mxCell id="46l-f_MFqbUuRLEDhZOO-41" value="StraÃŸe" style="ellipse;whiteSpace=wrap;html=1;align=center;" vertex="1" parent="1">
          <mxGeometry x="-130" y="390" width="100" height="40" as="geometry" />
        </mxCell>
        <mxCell id="46l-f_MFqbUuRLEDhZOO-42" value="Hausnummer" style="ellipse;whiteSpace=wrap;html=1;align=center;" vertex="1" parent="1">
          <mxGeometry x="-130" y="510" width="100" height="40" as="geometry" />
        </mxCell>
        <mxCell id="46l-f_MFqbUuRLEDhZOO-43" value="Plz" style="ellipse;whiteSpace=wrap;html=1;align=center;" vertex="1" parent="1">
          <mxGeometry x="-130" y="470" width="100" height="40" as="geometry" />
        </mxCell>
        <mxCell id="46l-f_MFqbUuRLEDhZOO-44" value="&lt;u&gt;KundenID&lt;/u&gt;" style="ellipse;whiteSpace=wrap;html=1;align=center;" vertex="1" parent="1">
          <mxGeometry x="-130" y="430" width="100" height="40" as="geometry" />
        </mxCell>
        <mxCell id="46l-f_MFqbUuRLEDhZOO-45" value="Name" style="ellipse;whiteSpace=wrap;html=1;align=center;" vertex="1" parent="1">
          <mxGeometry x="70" y="210" width="100" height="40" as="geometry" />
        </mxCell>
        <mxCell id="46l-f_MFqbUuRLEDhZOO-46" value="Vorname" style="ellipse;whiteSpace=wrap;html=1;align=center;" vertex="1" parent="1">
          <mxGeometry x="-30" y="210" width="100" height="40" as="geometry" />
        </mxCell>
        <mxCell id="46l-f_MFqbUuRLEDhZOO-50" value="&lt;u&gt;AnsprechpartnerID&lt;/u&gt;" style="ellipse;whiteSpace=wrap;html=1;align=center;" vertex="1" parent="1">
          <mxGeometry x="-130" y="250" width="100" height="40" as="geometry" />
        </mxCell>
        <mxCell id="46l-f_MFqbUuRLEDhZOO-52" value="Email" style="ellipse;whiteSpace=wrap;html=1;align=center;" vertex="1" parent="1">
          <mxGeometry x="-130" y="210" width="100" height="40" as="geometry" />
        </mxCell>
        <mxCell id="46l-f_MFqbUuRLEDhZOO-55" value="" style="endArrow=none;html=1;rounded=0;" edge="1" parent="1" source="46l-f_MFqbUuRLEDhZOO-2" target="46l-f_MFqbUuRLEDhZOO-45">
          <mxGeometry relative="1" as="geometry">
            <mxPoint x="130" y="310" as="sourcePoint" />
            <mxPoint x="290" y="310" as="targetPoint" />
          </mxGeometry>
        </mxCell>
        <mxCell id="46l-f_MFqbUuRLEDhZOO-56" value="" style="endArrow=none;html=1;rounded=0;" edge="1" parent="1" source="46l-f_MFqbUuRLEDhZOO-2" target="46l-f_MFqbUuRLEDhZOO-46">
          <mxGeometry relative="1" as="geometry">
            <mxPoint x="91" y="300" as="sourcePoint" />
            <mxPoint x="119" y="250" as="targetPoint" />
          </mxGeometry>
        </mxCell>
        <mxCell id="46l-f_MFqbUuRLEDhZOO-57" value="" style="endArrow=none;html=1;rounded=0;" edge="1" parent="1" source="46l-f_MFqbUuRLEDhZOO-2" target="46l-f_MFqbUuRLEDhZOO-52">
          <mxGeometry relative="1" as="geometry">
            <mxPoint x="69" y="300" as="sourcePoint" />
            <mxPoint x="41" y="250" as="targetPoint" />
          </mxGeometry>
        </mxCell>
        <mxCell id="46l-f_MFqbUuRLEDhZOO-58" value="" style="endArrow=none;html=1;rounded=0;" edge="1" parent="1" source="46l-f_MFqbUuRLEDhZOO-2" target="46l-f_MFqbUuRLEDhZOO-50">
          <mxGeometry relative="1" as="geometry">
            <mxPoint x="60" y="310" as="sourcePoint" />
            <mxPoint x="51" y="260" as="targetPoint" />
          </mxGeometry>
        </mxCell>
        <mxCell id="46l-f_MFqbUuRLEDhZOO-59" value="" style="endArrow=none;html=1;rounded=0;" edge="1" parent="1" source="46l-f_MFqbUuRLEDhZOO-41" target="46l-f_MFqbUuRLEDhZOO-1">
          <mxGeometry relative="1" as="geometry">
            <mxPoint x="130" y="520" as="sourcePoint" />
            <mxPoint x="290" y="520" as="targetPoint" />
          </mxGeometry>
        </mxCell>
        <mxCell id="46l-f_MFqbUuRLEDhZOO-60" value="" style="endArrow=none;html=1;rounded=0;" edge="1" parent="1" source="46l-f_MFqbUuRLEDhZOO-44" target="46l-f_MFqbUuRLEDhZOO-1">
          <mxGeometry relative="1" as="geometry">
            <mxPoint x="-30" y="432" as="sourcePoint" />
            <mxPoint x="300" y="530" as="targetPoint" />
          </mxGeometry>
        </mxCell>
        <mxCell id="46l-f_MFqbUuRLEDhZOO-61" value="" style="endArrow=none;html=1;rounded=0;" edge="1" parent="1" source="46l-f_MFqbUuRLEDhZOO-43" target="46l-f_MFqbUuRLEDhZOO-1">
          <mxGeometry relative="1" as="geometry">
            <mxPoint x="-20" y="442" as="sourcePoint" />
            <mxPoint x="310" y="540" as="targetPoint" />
          </mxGeometry>
        </mxCell>
        <mxCell id="46l-f_MFqbUuRLEDhZOO-62" value="" style="endArrow=none;html=1;rounded=0;" edge="1" parent="1" source="46l-f_MFqbUuRLEDhZOO-42" target="46l-f_MFqbUuRLEDhZOO-1">
          <mxGeometry relative="1" as="geometry">
            <mxPoint x="-10" y="452" as="sourcePoint" />
            <mxPoint x="320" y="550" as="targetPoint" />
          </mxGeometry>
        </mxCell>
        <mxCell id="46l-f_MFqbUuRLEDhZOO-63" value="" style="endArrow=none;html=1;rounded=0;" edge="1" parent="1" source="46l-f_MFqbUuRLEDhZOO-40" target="46l-f_MFqbUuRLEDhZOO-1">
          <mxGeometry relative="1" as="geometry">
            <mxPoint y="462" as="sourcePoint" />
            <mxPoint x="330" y="560" as="targetPoint" />
          </mxGeometry>
        </mxCell>
        <mxCell id="46l-f_MFqbUuRLEDhZOO-64" value="" style="endArrow=none;html=1;rounded=0;" edge="1" parent="1" source="46l-f_MFqbUuRLEDhZOO-1" target="46l-f_MFqbUuRLEDhZOO-39">
          <mxGeometry relative="1" as="geometry">
            <mxPoint x="10" y="472" as="sourcePoint" />
            <mxPoint x="340" y="570" as="targetPoint" />
          </mxGeometry>
        </mxCell>
        <mxCell id="46l-f_MFqbUuRLEDhZOO-65" value="Telefonnummer" style="ellipse;whiteSpace=wrap;html=1;align=center;" vertex="1" parent="1">
          <mxGeometry x="-130" y="290" width="100" height="40" as="geometry" />
        </mxCell>
        <mxCell id="46l-f_MFqbUuRLEDhZOO-67" value="" style="endArrow=none;html=1;rounded=0;" edge="1" parent="1" source="46l-f_MFqbUuRLEDhZOO-2" target="46l-f_MFqbUuRLEDhZOO-65">
          <mxGeometry relative="1" as="geometry">
            <mxPoint x="40" y="300" as="sourcePoint" />
            <mxPoint x="-42" y="247" as="targetPoint" />
          </mxGeometry>
        </mxCell>
        <mxCell id="46l-f_MFqbUuRLEDhZOO-68" value="&lt;u&gt;TarifID&lt;/u&gt;" style="ellipse;whiteSpace=wrap;html=1;align=center;" vertex="1" parent="1">
          <mxGeometry x="280" y="300" width="100" height="40" as="geometry" />
        </mxCell>
        <mxCell id="46l-f_MFqbUuRLEDhZOO-69" value="" style="endArrow=none;html=1;rounded=0;" edge="1" parent="1" source="46l-f_MFqbUuRLEDhZOO-4" target="46l-f_MFqbUuRLEDhZOO-68">
          <mxGeometry relative="1" as="geometry">
            <mxPoint x="130" y="410" as="sourcePoint" />
            <mxPoint x="290" y="410" as="targetPoint" />
          </mxGeometry>
        </mxCell>
      </root>
    </mxGraphModel>
  </diagram>
</mxfile>
